<?xml version="1.0" encoding="UTF-8" standalone="no"?>
<svg
   xmlns:dc="http://purl.org/dc/elements/1.1/"
   xmlns:cc="http://creativecommons.org/ns#"
   xmlns:rdf="http://www.w3.org/1999/02/22-rdf-syntax-ns#"
   xmlns:svg="http://www.w3.org/2000/svg"
   xmlns="http://www.w3.org/2000/svg"
   viewBox="0 0 345.60001 605.8667"
   height="605.8667"
   width="345.60001"
   xml:space="preserve"
   id="svg2"
   version="1.1"><metadata
     id="metadata8"><rdf:RDF><cc:Work
         rdf:about=""><dc:format>image/svg+xml</dc:format><dc:type
           rdf:resource="http://purl.org/dc/dcmitype/StillImage" /></cc:Work></rdf:RDF></metadata><defs
     id="defs6"><clipPath
       id="clipPath18"
       clipPathUnits="userSpaceOnUse"><path
         id="path16"
         d="M 0,0 H 259.20001 V 454.40002 H 0 Z" /></clipPath><mask
       id="mask20"
       height="1"
       width="1"
       y="0"
       x="0"
       maskUnits="userSpaceOnUse"><g
         id="g28"><g
           id="g26"
           clip-path="url(#clipPath18)"><g
             id="g24"
             transform="translate(-60.800003,-28.799988)"><path
               id="path22"
               style="fill:#000000;fill-opacity:1;fill-rule:nonzero;stroke:none"
               d="M 0,512 H 320 V 0 H 0 Z" /></g></g></g></mask><clipPath
       id="clipPath36"
       clipPathUnits="userSpaceOnUse"><path
         id="path34"
         d="M 0,0 H 259.20001 V 454.40002 H 0 Z" /></clipPath></defs><g
     transform="matrix(1.3333333,0,0,-1.3333333,0,605.8667)"
     id="g10"><g
       id="g12"><g
         id="g14" /><g
         mask="url(#mask20)"
         id="g30"><g
           id="g32" /><g
           id="g44"><g
             id="g42"
             clip-path="url(#clipPath36)"><g
               id="g40"
               transform="translate(3.125,-3.125)"><path
                 id="path38"
                 style="fill:#ffffff;fill-opacity:1;fill-rule:nonzero;stroke:none"
                 d="m 246.675,252.92503 c 12.49999,-12.5 12.49999,-32.80002 0,-45.30002 L 54.674995,15.625 c -12.5,-12.5 -32.799995,-12.5 -45.299995,0 -12.5,12.5 -12.5,32.800018 0,45.300018 L 178.77499,230.32503 9.474998,399.72504 c -12.5,12.5 -12.5,32.79998 0,45.29998 12.5,12.5 32.799996,12.5 45.299996,0 l 192.000016,-192 -0.10001,-0.1 z" /></g></g></g></g></g></g></svg>